# xmcd CD database file
# Copyright (C) 1997 Ti Kan
#
# Track frame offsets:
#  150
#  14172
#  32157
#  43240
#  56327
#  71132
#  84647
#  94617
#  107022
#  117657
#
# Disc length: 1729 seconds
#
# Revision: 1
# Processed by: cddbd v1.4b41PL1 Copyright (c) Steve Scherf et al.
# Submitted via: CDWizzard Release:4.35
#
DISCID=8c06bf0a
DTITLE=Johnny Paycheck - Johnny Paycheck
DYEAR=1900
DGENRE=
TTITLE0=Slide Off Your Satin Sheets
TTITLE1=In Memory Of A Memory
TTITLE2=A-11
TTITLE3=Take This Job And Shove It
TTITLE4=I'm The Only Hell Mama Ever Raised
TTITLE5=She's All I Got
TTITLE6=Mr. Lovemaker
TTITLE7=Me And The IRS
TTITLE8=Loving You Beats All I've Ever Seen
TTITLE9=She Thinks I Still Care
EXTD=
EXTT0=
EXTT1=
EXTT2=
EXTT3=
EXTT4=
EXTT5=
EXTT6=
EXTT7=
EXTT8=
EXTT9=
PLAYORDER=
